<mxfile host="app.diagrams.net" modified="2024-01-26T19:42:15.620Z" agent="Mozilla/5.0 (Windows NT 10.0; Win64; x64) AppleWebKit/537.36 (KHTML, like Gecko) Chrome/120.0.0.0 Safari/537.36" etag="hm3_c668tdT6f0j2YUjN" version="23.0.2" type="google">
  <diagram id="prtHgNgQTEPvFCAcTncT" name="Page-1">
    <mxGraphModel grid="1" page="1" gridSize="10" guides="1" tooltips="1" connect="1" arrows="1" fold="1" pageScale="1" pageWidth="827" pageHeight="1169" math="0" shadow="0">
      <root>
        <mxCell id="0" />
        <mxCell id="1" parent="0" />
        <mxCell id="5WxAIkpqzA0BmYz_Pild-1" value="ارسال نامه جهت اطلاع" style="swimlane;html=1;childLayout=stackLayout;resizeParent=1;resizeParentMax=0;horizontal=0;startSize=20;horizontalStack=0;" vertex="1" parent="1">
          <mxGeometry x="76" y="120" width="1710" height="490" as="geometry" />
        </mxCell>
        <mxCell id="5WxAIkpqzA0BmYz_Pild-2" value="کاربر" style="swimlane;html=1;startSize=20;horizontal=0;" vertex="1" parent="5WxAIkpqzA0BmYz_Pild-1">
          <mxGeometry x="20" width="1690" height="250" as="geometry">
            <mxRectangle x="20" width="490" height="30" as="alternateBounds" />
          </mxGeometry>
        </mxCell>
        <mxCell id="5WxAIkpqzA0BmYz_Pild-3" style="edgeStyle=orthogonalEdgeStyle;rounded=0;orthogonalLoop=1;jettySize=auto;html=1;" edge="1" parent="5WxAIkpqzA0BmYz_Pild-2" source="5WxAIkpqzA0BmYz_Pild-4" target="5WxAIkpqzA0BmYz_Pild-15">
          <mxGeometry relative="1" as="geometry">
            <mxPoint x="110" y="82" as="targetPoint" />
          </mxGeometry>
        </mxCell>
        <mxCell id="5WxAIkpqzA0BmYz_Pild-4" value="" style="ellipse;fillColor=strokeColor;html=1;" vertex="1" parent="5WxAIkpqzA0BmYz_Pild-2">
          <mxGeometry x="45" y="67" width="30" height="30" as="geometry" />
        </mxCell>
        <mxCell id="5WxAIkpqzA0BmYz_Pild-15" value="&lt;font style=&quot;font-size: 14px;&quot;&gt;درخواست ارسال نامه جدید&lt;/font&gt;" style="html=1;align=center;verticalAlign=top;rounded=1;absoluteArcSize=1;arcSize=13;dashed=0;whiteSpace=wrap;" vertex="1" parent="5WxAIkpqzA0BmYz_Pild-2">
          <mxGeometry x="108" y="62" width="140" height="40" as="geometry" />
        </mxCell>
        <mxCell id="R5E6zOiHR3bCAiuiMWgp-4" style="rounded=0;orthogonalLoop=1;jettySize=auto;html=1;exitX=0.677;exitY=0.466;exitDx=0;exitDy=0;exitPerimeter=0;entryX=0;entryY=0.5;entryDx=0;entryDy=0;" edge="1" parent="5WxAIkpqzA0BmYz_Pild-2" source="R5E6zOiHR3bCAiuiMWgp-2" target="R5E6zOiHR3bCAiuiMWgp-5">
          <mxGeometry relative="1" as="geometry">
            <mxPoint x="364.0049999999999" y="133.5200000000001" as="sourcePoint" />
            <mxPoint x="384" y="79.48405500774982" as="targetPoint" />
          </mxGeometry>
        </mxCell>
        <mxCell id="R5E6zOiHR3bCAiuiMWgp-2" value="" style="html=1;points=[];perimeter=orthogonalPerimeter;fillColor=strokeColor;" vertex="1" parent="5WxAIkpqzA0BmYz_Pild-2">
          <mxGeometry x="304" y="77" width="5" height="105" as="geometry" />
        </mxCell>
        <mxCell id="R5E6zOiHR3bCAiuiMWgp-5" value="&lt;span style=&quot;font-size: 14px;&quot;&gt;وارد کردن اطلاعات گیرنده نامه&lt;/span&gt;" style="html=1;align=center;verticalAlign=top;rounded=1;absoluteArcSize=1;arcSize=13;dashed=0;whiteSpace=wrap;" vertex="1" parent="5WxAIkpqzA0BmYz_Pild-2">
          <mxGeometry x="384" y="27" width="140" height="40" as="geometry" />
        </mxCell>
        <mxCell id="R5E6zOiHR3bCAiuiMWgp-6" value="&lt;span style=&quot;font-size: 14px;&quot;&gt;وارد کردن عنوان نامه&lt;/span&gt;" style="html=1;align=center;verticalAlign=top;rounded=1;absoluteArcSize=1;arcSize=13;dashed=0;whiteSpace=wrap;" vertex="1" parent="5WxAIkpqzA0BmYz_Pild-2">
          <mxGeometry x="384" y="77" width="140" height="40" as="geometry" />
        </mxCell>
        <mxCell id="R5E6zOiHR3bCAiuiMWgp-7" value="&lt;span style=&quot;font-size: 14px;&quot;&gt;وارد کردن متن نامه&lt;/span&gt;" style="html=1;align=center;verticalAlign=top;rounded=1;absoluteArcSize=1;arcSize=13;dashed=0;whiteSpace=wrap;" vertex="1" parent="5WxAIkpqzA0BmYz_Pild-2">
          <mxGeometry x="384" y="128" width="140" height="40" as="geometry" />
        </mxCell>
        <mxCell id="R5E6zOiHR3bCAiuiMWgp-8" style="rounded=0;orthogonalLoop=1;jettySize=auto;html=1;exitX=0.791;exitY=0.48;exitDx=0;exitDy=0;exitPerimeter=0;entryX=0;entryY=0.5;entryDx=0;entryDy=0;" edge="1" parent="5WxAIkpqzA0BmYz_Pild-2" source="R5E6zOiHR3bCAiuiMWgp-2" target="R5E6zOiHR3bCAiuiMWgp-6">
          <mxGeometry relative="1" as="geometry">
            <mxPoint x="317" y="104" as="sourcePoint" />
            <mxPoint x="394" y="57" as="targetPoint" />
          </mxGeometry>
        </mxCell>
        <mxCell id="R5E6zOiHR3bCAiuiMWgp-9" style="rounded=0;orthogonalLoop=1;jettySize=auto;html=1;exitX=0.905;exitY=0.505;exitDx=0;exitDy=0;exitPerimeter=0;entryX=0;entryY=0.5;entryDx=0;entryDy=0;" edge="1" parent="5WxAIkpqzA0BmYz_Pild-2" source="R5E6zOiHR3bCAiuiMWgp-2" target="R5E6zOiHR3bCAiuiMWgp-7">
          <mxGeometry relative="1" as="geometry">
            <mxPoint x="318" y="107" as="sourcePoint" />
            <mxPoint x="394" y="107" as="targetPoint" />
          </mxGeometry>
        </mxCell>
        <mxCell id="R5E6zOiHR3bCAiuiMWgp-10" style="rounded=0;orthogonalLoop=1;jettySize=auto;html=1;exitX=1;exitY=0.5;exitDx=0;exitDy=0;" edge="1" parent="5WxAIkpqzA0BmYz_Pild-2" source="R5E6zOiHR3bCAiuiMWgp-5">
          <mxGeometry relative="1" as="geometry">
            <mxPoint x="674.0049999999999" y="133.0200000000001" as="sourcePoint" />
            <mxPoint x="594" y="47" as="targetPoint" />
          </mxGeometry>
        </mxCell>
        <mxCell id="avbCMvSA1qUOpbE4YBwk-38" style="edgeStyle=orthogonalEdgeStyle;rounded=0;orthogonalLoop=1;jettySize=auto;html=1;" edge="1" parent="5WxAIkpqzA0BmYz_Pild-2" source="R5E6zOiHR3bCAiuiMWgp-11" target="R5E6zOiHR3bCAiuiMWgp-35">
          <mxGeometry relative="1" as="geometry" />
        </mxCell>
        <mxCell id="R5E6zOiHR3bCAiuiMWgp-11" value="" style="html=1;points=[];perimeter=orthogonalPerimeter;fillColor=strokeColor;" vertex="1" parent="5WxAIkpqzA0BmYz_Pild-2">
          <mxGeometry x="596" y="31" width="5" height="180" as="geometry" />
        </mxCell>
        <mxCell id="R5E6zOiHR3bCAiuiMWgp-12" style="rounded=0;orthogonalLoop=1;jettySize=auto;html=1;exitX=1;exitY=0.5;exitDx=0;exitDy=0;" edge="1" parent="5WxAIkpqzA0BmYz_Pild-2" source="R5E6zOiHR3bCAiuiMWgp-6">
          <mxGeometry relative="1" as="geometry">
            <mxPoint x="627" y="103.5" as="sourcePoint" />
            <mxPoint x="594" y="97" as="targetPoint" />
          </mxGeometry>
        </mxCell>
        <mxCell id="R5E6zOiHR3bCAiuiMWgp-13" style="rounded=0;orthogonalLoop=1;jettySize=auto;html=1;exitX=1;exitY=0.5;exitDx=0;exitDy=0;" edge="1" parent="5WxAIkpqzA0BmYz_Pild-2" source="R5E6zOiHR3bCAiuiMWgp-7">
          <mxGeometry relative="1" as="geometry">
            <mxPoint x="628" y="106.5" as="sourcePoint" />
            <mxPoint x="594" y="148" as="targetPoint" />
          </mxGeometry>
        </mxCell>
        <mxCell id="R5E6zOiHR3bCAiuiMWgp-35" value="تایید اطلاعات نامه" style="shape=mxgraph.uml25.action;html=1;align=center;verticalAlign=middle;absoluteArcSize=1;arcSize=10;dashed=0;spacingRight=10;whiteSpace=wrap;" vertex="1" parent="5WxAIkpqzA0BmYz_Pild-2">
          <mxGeometry x="664" y="100" width="146" height="43" as="geometry" />
        </mxCell>
        <mxCell id="avbCMvSA1qUOpbE4YBwk-3" value="&lt;font style=&quot;font-size: 14px;&quot;&gt;وارد کردن دریافت کنندگان رونوشت&lt;/font&gt;" style="html=1;align=center;verticalAlign=top;rounded=1;absoluteArcSize=1;arcSize=13;dashed=0;whiteSpace=wrap;" vertex="1" parent="5WxAIkpqzA0BmYz_Pild-2">
          <mxGeometry x="384" y="180" width="140" height="40" as="geometry" />
        </mxCell>
        <mxCell id="avbCMvSA1qUOpbE4YBwk-4" style="rounded=0;orthogonalLoop=1;jettySize=auto;html=1;exitX=0.773;exitY=0.523;exitDx=0;exitDy=0;exitPerimeter=0;entryX=0;entryY=0.5;entryDx=0;entryDy=0;" edge="1" parent="5WxAIkpqzA0BmYz_Pild-2" source="R5E6zOiHR3bCAiuiMWgp-2" target="avbCMvSA1qUOpbE4YBwk-3">
          <mxGeometry relative="1" as="geometry">
            <mxPoint x="314" y="200" as="sourcePoint" />
            <mxPoint x="400" y="160" as="targetPoint" />
          </mxGeometry>
        </mxCell>
        <mxCell id="avbCMvSA1qUOpbE4YBwk-5" style="rounded=0;orthogonalLoop=1;jettySize=auto;html=1;exitX=1;exitY=0.5;exitDx=0;exitDy=0;" edge="1" parent="5WxAIkpqzA0BmYz_Pild-2" source="avbCMvSA1qUOpbE4YBwk-3">
          <mxGeometry relative="1" as="geometry">
            <mxPoint x="633" y="206.5" as="sourcePoint" />
            <mxPoint x="594" y="200" as="targetPoint" />
          </mxGeometry>
        </mxCell>
        <mxCell id="5WxAIkpqzA0BmYz_Pild-6" value="سامانه" style="swimlane;html=1;startSize=20;horizontal=0;" vertex="1" parent="5WxAIkpqzA0BmYz_Pild-1">
          <mxGeometry x="20" y="250" width="1690" height="240" as="geometry" />
        </mxCell>
        <mxCell id="5WxAIkpqzA0BmYz_Pild-16" value="&lt;font style=&quot;font-size: 14px;&quot;&gt;درخواست اطلاعات نامه&lt;/font&gt;" style="html=1;align=center;verticalAlign=top;rounded=1;absoluteArcSize=1;arcSize=13;dashed=0;whiteSpace=wrap;" vertex="1" parent="5WxAIkpqzA0BmYz_Pild-6">
          <mxGeometry x="108" y="30" width="140" height="40" as="geometry" />
        </mxCell>
        <mxCell id="5WxAIkpqzA0BmYz_Pild-27" style="edgeStyle=orthogonalEdgeStyle;rounded=0;orthogonalLoop=1;jettySize=auto;html=1;" edge="1" parent="5WxAIkpqzA0BmYz_Pild-6" source="5WxAIkpqzA0BmYz_Pild-38" target="5WxAIkpqzA0BmYz_Pild-26">
          <mxGeometry relative="1" as="geometry">
            <Array as="points" />
          </mxGeometry>
        </mxCell>
        <mxCell id="5WxAIkpqzA0BmYz_Pild-26" value="" style="rhombus;" vertex="1" parent="5WxAIkpqzA0BmYz_Pild-6">
          <mxGeometry x="1035" y="84" width="30" height="30" as="geometry" />
        </mxCell>
        <mxCell id="QJkGT8-lh9rbp4RDgdhs-3" style="edgeStyle=orthogonalEdgeStyle;rounded=0;orthogonalLoop=1;jettySize=auto;html=1;" edge="1" parent="5WxAIkpqzA0BmYz_Pild-6" source="5WxAIkpqzA0BmYz_Pild-28" target="QJkGT8-lh9rbp4RDgdhs-1">
          <mxGeometry relative="1" as="geometry" />
        </mxCell>
        <mxCell id="5WxAIkpqzA0BmYz_Pild-28" value="&lt;font style=&quot;font-size: 14px;&quot;&gt;اعلام نامعتبر بودن اطلاعات&lt;/font&gt;" style="html=1;align=center;verticalAlign=top;rounded=1;absoluteArcSize=1;arcSize=13;dashed=0;whiteSpace=wrap;" vertex="1" parent="5WxAIkpqzA0BmYz_Pild-6">
          <mxGeometry x="980" y="170" width="140" height="40" as="geometry" />
        </mxCell>
        <mxCell id="5WxAIkpqzA0BmYz_Pild-29" style="edgeStyle=orthogonalEdgeStyle;rounded=0;orthogonalLoop=1;jettySize=auto;html=1;" edge="1" parent="5WxAIkpqzA0BmYz_Pild-6" source="5WxAIkpqzA0BmYz_Pild-26" target="5WxAIkpqzA0BmYz_Pild-28">
          <mxGeometry relative="1" as="geometry" />
        </mxCell>
        <mxCell id="5WxAIkpqzA0BmYz_Pild-40" value="&lt;font style=&quot;font-size: 12px;&quot;&gt;وگرنه&lt;/font&gt;" style="edgeLabel;html=1;align=center;verticalAlign=middle;resizable=0;points=[];" connectable="0" vertex="1" parent="5WxAIkpqzA0BmYz_Pild-29">
          <mxGeometry x="-0.2205" y="-2" relative="1" as="geometry">
            <mxPoint x="-13" y="-11" as="offset" />
          </mxGeometry>
        </mxCell>
        <mxCell id="5WxAIkpqzA0BmYz_Pild-38" value="بررسی اطلاعات" style="shape=mxgraph.uml25.action;html=1;align=center;verticalAlign=middle;absoluteArcSize=1;arcSize=10;dashed=0;spacingLeft=10;flipH=1;whiteSpace=wrap;" vertex="1" parent="5WxAIkpqzA0BmYz_Pild-6">
          <mxGeometry x="868" y="25" width="150" height="50" as="geometry" />
        </mxCell>
        <mxCell id="avbCMvSA1qUOpbE4YBwk-21" value="" style="html=1;points=[];perimeter=orthogonalPerimeter;fillColor=strokeColor;" vertex="1" parent="5WxAIkpqzA0BmYz_Pild-6">
          <mxGeometry x="1214" y="46.5" width="5" height="105" as="geometry" />
        </mxCell>
        <mxCell id="avbCMvSA1qUOpbE4YBwk-24" value="&lt;font style=&quot;font-size: 14px;&quot;&gt;ارسال رونوشتی از نامه&lt;/font&gt;" style="html=1;align=center;verticalAlign=top;rounded=1;absoluteArcSize=1;arcSize=13;dashed=0;whiteSpace=wrap;" vertex="1" parent="5WxAIkpqzA0BmYz_Pild-6">
          <mxGeometry x="1278" y="51.5" width="140" height="40" as="geometry" />
        </mxCell>
        <mxCell id="avbCMvSA1qUOpbE4YBwk-26" style="rounded=0;orthogonalLoop=1;jettySize=auto;html=1;entryX=0;entryY=0.5;entryDx=0;entryDy=0;exitX=0.311;exitY=0.238;exitDx=0;exitDy=0;exitPerimeter=0;" edge="1" parent="5WxAIkpqzA0BmYz_Pild-6" source="avbCMvSA1qUOpbE4YBwk-21" target="avbCMvSA1qUOpbE4YBwk-24">
          <mxGeometry relative="1" as="geometry">
            <mxPoint x="1224" y="73" as="sourcePoint" />
            <mxPoint x="1278" y="220" as="targetPoint" />
          </mxGeometry>
        </mxCell>
        <mxCell id="avbCMvSA1qUOpbE4YBwk-30" style="rounded=0;orthogonalLoop=1;jettySize=auto;html=1;exitX=1;exitY=0.5;exitDx=0;exitDy=0;entryX=-0.578;entryY=0.234;entryDx=0;entryDy=0;entryPerimeter=0;" edge="1" parent="5WxAIkpqzA0BmYz_Pild-6" source="avbCMvSA1qUOpbE4YBwk-24" target="avbCMvSA1qUOpbE4YBwk-36">
          <mxGeometry relative="1" as="geometry">
            <mxPoint x="1522" y="31" as="sourcePoint" />
            <mxPoint x="1488" y="72.5" as="targetPoint" />
          </mxGeometry>
        </mxCell>
        <mxCell id="avbCMvSA1qUOpbE4YBwk-31" value="&lt;font style=&quot;font-size: 14px;&quot;&gt;قرار دادن نامه در مسیر ارسال به گیرنده&lt;/font&gt;" style="html=1;align=center;verticalAlign=top;rounded=1;absoluteArcSize=1;arcSize=13;dashed=0;whiteSpace=wrap;" vertex="1" parent="5WxAIkpqzA0BmYz_Pild-6">
          <mxGeometry x="1278" y="104.5" width="140" height="40" as="geometry" />
        </mxCell>
        <mxCell id="avbCMvSA1qUOpbE4YBwk-32" style="rounded=0;orthogonalLoop=1;jettySize=auto;html=1;exitX=1.119;exitY=0.735;exitDx=0;exitDy=0;exitPerimeter=0;entryX=0;entryY=0.5;entryDx=0;entryDy=0;" edge="1" parent="5WxAIkpqzA0BmYz_Pild-6" source="avbCMvSA1qUOpbE4YBwk-21" target="avbCMvSA1qUOpbE4YBwk-31">
          <mxGeometry relative="1" as="geometry">
            <mxPoint x="1198" y="313" as="sourcePoint" />
            <mxPoint x="1284" y="273" as="targetPoint" />
          </mxGeometry>
        </mxCell>
        <mxCell id="avbCMvSA1qUOpbE4YBwk-33" style="rounded=0;orthogonalLoop=1;jettySize=auto;html=1;exitX=1;exitY=0.5;exitDx=0;exitDy=0;entryX=-0.416;entryY=0.739;entryDx=0;entryDy=0;entryPerimeter=0;" edge="1" parent="5WxAIkpqzA0BmYz_Pild-6" source="avbCMvSA1qUOpbE4YBwk-31" target="avbCMvSA1qUOpbE4YBwk-36">
          <mxGeometry relative="1" as="geometry">
            <mxPoint x="1527" y="131" as="sourcePoint" />
            <mxPoint x="1488" y="124.5" as="targetPoint" />
          </mxGeometry>
        </mxCell>
        <mxCell id="avbCMvSA1qUOpbE4YBwk-34" style="edgeStyle=orthogonalEdgeStyle;rounded=0;orthogonalLoop=1;jettySize=auto;html=1;entryX=0;entryY=0.5;entryDx=0;entryDy=0;entryPerimeter=0;" edge="1" parent="5WxAIkpqzA0BmYz_Pild-6" source="5WxAIkpqzA0BmYz_Pild-26" target="avbCMvSA1qUOpbE4YBwk-21">
          <mxGeometry relative="1" as="geometry" />
        </mxCell>
        <mxCell id="avbCMvSA1qUOpbE4YBwk-35" value="[اطلاعات وارد شده صحیح است]" style="edgeLabel;html=1;align=center;verticalAlign=middle;resizable=0;points=[];" connectable="0" vertex="1" parent="avbCMvSA1qUOpbE4YBwk-34">
          <mxGeometry x="0.1142" relative="1" as="geometry">
            <mxPoint x="-15" y="-10" as="offset" />
          </mxGeometry>
        </mxCell>
        <mxCell id="avbCMvSA1qUOpbE4YBwk-37" style="edgeStyle=orthogonalEdgeStyle;rounded=0;orthogonalLoop=1;jettySize=auto;html=1;" edge="1" parent="5WxAIkpqzA0BmYz_Pild-6" source="QJkGT8-lh9rbp4RDgdhs-1" target="5WxAIkpqzA0BmYz_Pild-7">
          <mxGeometry relative="1" as="geometry" />
        </mxCell>
        <mxCell id="avbCMvSA1qUOpbE4YBwk-36" value="" style="html=1;points=[];perimeter=orthogonalPerimeter;fillColor=strokeColor;" vertex="1" parent="5WxAIkpqzA0BmYz_Pild-6">
          <mxGeometry x="1494" y="46.5" width="5" height="105" as="geometry" />
        </mxCell>
        <mxCell id="5WxAIkpqzA0BmYz_Pild-7" value="" style="ellipse;html=1;shape=endState;fillColor=strokeColor;" vertex="1" parent="5WxAIkpqzA0BmYz_Pild-6">
          <mxGeometry x="1634" y="84" width="30" height="30" as="geometry" />
        </mxCell>
        <mxCell id="QJkGT8-lh9rbp4RDgdhs-1" value="" style="rhombus;" vertex="1" parent="5WxAIkpqzA0BmYz_Pild-6">
          <mxGeometry x="1558" y="84" width="30" height="30" as="geometry" />
        </mxCell>
        <mxCell id="QJkGT8-lh9rbp4RDgdhs-2" value="" style="edgeStyle=orthogonalEdgeStyle;rounded=0;orthogonalLoop=1;jettySize=auto;html=1;" edge="1" parent="5WxAIkpqzA0BmYz_Pild-6" source="avbCMvSA1qUOpbE4YBwk-36" target="QJkGT8-lh9rbp4RDgdhs-1">
          <mxGeometry relative="1" as="geometry">
            <mxPoint x="1595" y="469" as="sourcePoint" />
            <mxPoint x="1670" y="469" as="targetPoint" />
          </mxGeometry>
        </mxCell>
        <mxCell id="5WxAIkpqzA0BmYz_Pild-17" style="edgeStyle=orthogonalEdgeStyle;rounded=0;orthogonalLoop=1;jettySize=auto;html=1;" edge="1" parent="5WxAIkpqzA0BmYz_Pild-1" source="5WxAIkpqzA0BmYz_Pild-15" target="5WxAIkpqzA0BmYz_Pild-16">
          <mxGeometry relative="1" as="geometry">
            <Array as="points" />
          </mxGeometry>
        </mxCell>
        <mxCell id="5WxAIkpqzA0BmYz_Pild-19" style="edgeStyle=orthogonalEdgeStyle;rounded=0;orthogonalLoop=1;jettySize=auto;html=1;entryX=-0.121;entryY=0.509;entryDx=0;entryDy=0;entryPerimeter=0;" edge="1" parent="5WxAIkpqzA0BmYz_Pild-1" source="5WxAIkpqzA0BmYz_Pild-16" target="R5E6zOiHR3bCAiuiMWgp-2">
          <mxGeometry relative="1" as="geometry">
            <mxPoint x="284" y="97" as="targetPoint" />
          </mxGeometry>
        </mxCell>
        <mxCell id="R5E6zOiHR3bCAiuiMWgp-37" style="edgeStyle=orthogonalEdgeStyle;rounded=0;orthogonalLoop=1;jettySize=auto;html=1;" edge="1" parent="5WxAIkpqzA0BmYz_Pild-1" source="R5E6zOiHR3bCAiuiMWgp-35" target="5WxAIkpqzA0BmYz_Pild-38">
          <mxGeometry relative="1" as="geometry">
            <Array as="points">
              <mxPoint x="854" y="119" />
              <mxPoint x="854" y="300" />
            </Array>
          </mxGeometry>
        </mxCell>
        <mxCell id="R5E6zOiHR3bCAiuiMWgp-38" value="نامه" style="edgeLabel;html=1;align=center;verticalAlign=middle;resizable=0;points=[];" connectable="0" vertex="1" parent="R5E6zOiHR3bCAiuiMWgp-37">
          <mxGeometry x="-0.7829" y="2" relative="1" as="geometry">
            <mxPoint x="-12" y="-12" as="offset" />
          </mxGeometry>
        </mxCell>
      </root>
    </mxGraphModel>
  </diagram>
</mxfile>
